<?xml version="1.0" encoding="utf-8"?>
<!-- Designed by Vexels.com - 2019 All Rights Reserved - https://vexels.com/terms-and-conditions/  -->
<svg version="1.1" id="Capa_1" xmlns="http://www.w3.org/2000/svg" xmlns:xlink="http://www.w3.org/1999/xlink" x="0px" y="0px"
	 viewBox="0 0 1200 1200" style="enable-background:new 0 0 1200 1200;" xml:space="preserve">
<style type="text/css">
	.st0{fill:#8C3439;}
	.st1{fill:#004F6F;}
	.st2{fill:#CEDBE3;}
	.st3{fill:#929BA8;}
	.st4{fill:#4A4D4F;}
	.st5{fill:#7A7D7F;}
	.st6{fill:#050A09;}
	.st7{fill:#CBCCCE;}
	.st8{fill:#8F2124;}
	.st9{fill:#4E555D;}
	.st10{fill:#C78847;}
	.st11{fill:#CB793F;}
	.st12{fill:none;stroke:#CB793F;stroke-miterlimit:10;}
	.st13{fill:#007B76;}
	.st14{fill:#8F2D36;}
	.st15{fill:#2C5A66;}
	.st16{fill:#F79653;}
	.st17{fill:#3A5787;}
	.st18{fill:#1A6964;}
	.st19{fill:#193441;}
	.st20{fill:#071D27;}
	.st21{fill:none;stroke:#4A4D4F;stroke-width:2;stroke-miterlimit:10;}
	.st22{fill:#E2E3E4;}
	.st23{fill:#8E352E;}
	.st24{fill:#417891;}
	.st25{fill:#8AABBE;}
	.st26{fill:#DAB06B;}
	.st27{fill:#A85629;}
	.st28{fill:#5A594D;}
	.st29{fill:#17201F;}
	.st30{fill:#692E12;}
	.st31{fill:#CC653E;}
	.st32{fill:#1E363F;}
	.st33{fill:#1C4251;}
	.st34{fill:#09161F;}
	.st35{fill:#902E20;}
	.st36{fill:#1B434D;}
	.st37{fill:#E3DED0;}
	.st38{fill:#3A5A66;}
	.st39{fill:#3F616F;}
	.st40{fill:#713617;}
	.st41{fill:none;stroke:#5A594D;stroke-miterlimit:10;}
	.st42{fill:#627B8A;}
	.st43{fill:#037B97;}
	.st44{fill:#E8C47F;}
	.st45{fill:#383B3C;}
	.st46{fill:#132F3B;}
	.st47{fill:#173B49;}
	.st48{fill:#BABBA7;}
	.st49{fill:#28434C;}
	.st50{fill:#2E5E6C;}
	.st51{fill:#FFE1BE;}
	.st52{fill:#0388A5;}
	.st53{opacity:0.8;fill:#004F6F;}
	.st54{fill:#65252C;}
	.st55{fill:#CDB483;}
	.st56{fill:#CCC8BC;}
	.st57{fill:#4F7584;}
	.st58{fill:#BC6242;}
	.st59{fill:#FFFFFF;}
	.st60{fill:#D4D1D5;}
	.st61{fill:#81461E;}
	.st62{fill:#95BFC8;}
	.st63{fill:#304D5B;}
	.st64{clip-path:url(#XMLID_9_);}
	.st65{clip-path:url(#XMLID_10_);}
	.st66{clip-path:url(#XMLID_11_);}
	.st67{clip-path:url(#XMLID_12_);}
	.st68{fill:#924727;}
	.st69{fill:none;stroke:#929BA8;stroke-width:8;stroke-miterlimit:10;}
	.st70{fill:#D8C0A3;}
	.st71{fill:#884222;}
	.st72{fill:#903339;}
	.st73{fill:#45240E;}
	.st74{fill:none;stroke:#CCC8BC;stroke-width:8;stroke-miterlimit:10;}
	.st75{fill:none;stroke:#383B3C;stroke-miterlimit:10;}
	.st76{fill:#471E0D;}
	.st77{fill:none;stroke:#CEDBE3;stroke-width:8;stroke-linecap:round;stroke-miterlimit:10;}
	.st78{fill:#7B7C70;}
	.st79{fill:none;stroke:#929BA8;stroke-miterlimit:10;}
	.st80{clip-path:url(#XMLID_13_);}
	.st81{clip-path:url(#XMLID_14_);}
	.st82{clip-path:url(#XMLID_15_);}
</style>
<g>
	<rect x="627.7" y="552" class="st3" width="21.9" height="16.3"/>
	<rect x="457.2" y="552" class="st3" width="21.9" height="16.3"/>
	<rect x="286.7" y="552" class="st3" width="21.9" height="16.3"/>
	<rect x="798.2" y="552" class="st3" width="21.9" height="16.3"/>
	<circle class="st2" cx="635.4" cy="646.9" r="82.5"/>
	<circle class="st2" cx="464.9" cy="646.9" r="82.5"/>
	<circle class="st2" cx="294.4" cy="646.9" r="82.5"/>
	<circle class="st2" cx="805.9" cy="646.9" r="82.5"/>
	<path class="st32" d="M967.6,733.6h87.7c0,0-16.9-11.3-13.1-31.5C1046,682,967.6,733.6,967.6,733.6z"/>
	<path class="st33" d="M1099.3,646.8l-6.4,34l-2.5,13.4c-22.2,16.1-49.6,7.7-117.2,39.4H166.9c0,0-8.8-23.3-26.7-52.8
		c-10.2-16.7-23.3-35.3-39.5-52.8h122.6l14.3,15.2h655l14.3-14.3h126.2l17.9,17.9H1099.3z"/>
	<rect x="906.9" y="564.4" class="st3" width="121.4" height="64.5"/>
	<polygon class="st3" points="973.1,564.4 973.1,545.3 963.4,545.3 963.4,535.3 951.7,535.3 949,491.1 956.7,491.1 956.7,487.4 
		949,487.4 947.4,466.4 936,466.4 936,469.1 941.7,469.1 941.3,474.1 936,474.1 936,481.8 941,481.8 941,487.8 928.6,487.8 
		928.6,494.1 940.7,494.1 940.3,533.3 935,533.3 935,520.6 890.2,520.6 890.2,534.9 906.9,534.9 906.9,564.4 	"/>
	<circle class="st3" cx="924.6" cy="511.8" r="8.7"/>
	<polygon class="st4" points="1020.2,564.4 979,564.4 982.8,524.9 984.1,510.2 985.2,498.7 1018.8,498.7 1019.1,510.2 1019.4,524.9 
			"/>
	<rect x="170.9" y="558.1" class="st3" width="3.2" height="69.9"/>
	<rect x="163.1" y="572.8" class="st3" width="16.8" height="1"/>
	<rect x="159.6" y="580.8" class="st3" width="11.9" height="0.8"/>
	<rect x="160.8" y="591.7" class="st3" width="25.7" height="1.4"/>
	<rect x="173.7" y="560.2" class="st3" width="4.1" height="0.6"/>
	<rect x="274.9" y="546.7" class="st5" width="632.1" height="5.1"/>
	<rect x="890.2" y="524.9" class="st34" width="37" height="5.6"/>
	<rect x="892.8" y="524" class="st3" width="1.1" height="7.6"/>
	<rect x="897.6" y="524" class="st3" width="1.1" height="7.6"/>
	<rect x="902.3" y="524" class="st3" width="1.1" height="7.6"/>
	<rect x="907.1" y="524" class="st3" width="1.1" height="7.6"/>
	<rect x="911.9" y="524" class="st3" width="1.1" height="7.6"/>
	<rect x="916.6" y="524" class="st3" width="1.1" height="7.6"/>
	<rect x="921.4" y="524" class="st3" width="1.1" height="7.6"/>
	<rect x="926.2" y="524" class="st3" width="1.1" height="7.6"/>
	<rect x="909.8" y="556.9" class="st34" width="4.5" height="6.5"/>
	<rect x="917.8" y="556.9" class="st34" width="4.5" height="6.5"/>
	<rect x="925.7" y="556.9" class="st34" width="4.5" height="6.5"/>
	<rect x="933.7" y="556.9" class="st34" width="4.5" height="6.5"/>
	<rect x="941.6" y="556.9" class="st34" width="4.5" height="6.5"/>
	<rect x="949.6" y="556.9" class="st34" width="4.5" height="6.5"/>
	<rect x="922.5" y="595.1" class="st4" width="94.6" height="1.5"/>
	<rect x="1010.6" y="596.7" class="st4" width="6.5" height="32.3"/>
	<circle class="st34" cx="929" cy="611.1" r="2.9"/>
	<circle class="st34" cx="938.2" cy="611.1" r="2.9"/>
	<circle class="st34" cx="947.3" cy="611.1" r="2.9"/>
	<circle class="st34" cx="956.4" cy="611.1" r="2.9"/>
	<circle class="st34" cx="965.5" cy="611.1" r="2.9"/>
	<path class="st35" d="M1092.9,680.8l-2.5,13.4c-22.2,16.1-49.6,7.7-117.2,39.4H166.9c0,0-8.8-23.3-26.7-52.8H1092.9z"/>
	<circle class="st34" cx="133.4" cy="644.1" r="2.8"/>
	<circle class="st34" cx="146.2" cy="644.1" r="2.8"/>
	<circle class="st34" cx="159" cy="644.1" r="2.8"/>
	<circle class="st34" cx="171.7" cy="644.1" r="2.8"/>
	<circle class="st34" cx="184.5" cy="644.1" r="2.8"/>
	<circle class="st34" cx="197.3" cy="644.1" r="2.8"/>
	<circle class="st34" cx="210.1" cy="644.1" r="2.8"/>
	<polygon class="st14" points="1019.4,524.9 982.8,524.9 984.1,510.2 1019.1,510.2 	"/>
	<rect x="1079.6" y="597.6" class="st4" width="3.8" height="49.3"/>
	<rect x="1060.8" y="626" class="st4" width="3.5" height="20.9"/>
	<rect x="1083.4" y="607.4" class="st4" width="11.5" height="1.8"/>
</g>
</svg>
