<svg id="svg" xmlns="http://www.w3.org/2000/svg" xmlns:xlink="http://www.w3.org/1999/xlink" width="400" height="69.66398485565547" viewBox="0, 0, 400,69.66398485565547"><g id="svgg"><path id="path0" d="M186.979 0.077 C 186.942 0.114,185.595 0.174,183.985 0.211 C 182.376 0.247,180.971 0.331,180.863 0.398 C 180.755 0.465,180.667 0.436,180.667 0.333 C 180.667 0.231,180.610 0.182,180.542 0.224 C 180.431 0.292,175.366 0.524,173.292 0.556 C 172.856 0.563,172.500 0.626,172.500 0.696 C 172.500 0.766,172.380 0.777,172.233 0.720 C 172.086 0.664,171.900 0.723,171.819 0.851 C 171.738 0.979,171.671 1.003,171.669 0.905 C 171.666 0.683,169.877 0.627,169.743 0.845 C 169.684 0.941,169.525 0.936,169.333 0.833 C 169.161 0.741,168.985 0.722,168.943 0.791 C 168.900 0.860,168.371 0.909,167.766 0.899 C 167.161 0.889,166.667 0.938,166.667 1.008 C 166.667 1.077,166.142 1.119,165.500 1.100 C 164.858 1.081,164.333 1.107,164.333 1.158 C 164.333 1.209,164.146 1.261,163.918 1.274 C 163.689 1.287,163.544 1.231,163.594 1.149 C 163.746 0.903,163.390 0.981,163.174 1.241 C 163.038 1.406,162.859 1.439,162.612 1.347 C 162.202 1.194,161.169 1.206,160.913 1.366 C 160.820 1.425,159.920 1.518,158.913 1.573 C 157.907 1.629,156.708 1.722,156.250 1.781 C 155.436 1.885,155.039 1.920,153.167 2.056 C 152.662 2.093,152.250 2.140,152.250 2.161 C 152.250 2.182,151.762 2.226,151.167 2.258 C 148.706 2.391,148.411 2.424,148.292 2.583 C 148.213 2.688,148.105 2.657,148.003 2.500 C 147.898 2.341,147.838 2.324,147.836 2.453 C 147.834 2.565,147.727 2.615,147.596 2.565 C 147.466 2.515,147.204 2.558,147.013 2.660 C 146.783 2.783,146.667 2.787,146.667 2.673 C 146.667 2.578,146.550 2.500,146.407 2.500 C 146.264 2.500,146.193 2.575,146.250 2.667 C 146.307 2.758,146.180 2.841,145.968 2.850 C 145.282 2.881,144.269 2.975,143.417 3.087 C 142.958 3.148,142.377 3.199,142.125 3.201 C 141.873 3.204,141.667 3.253,141.667 3.311 C 141.667 3.369,141.254 3.414,140.750 3.411 C 140.246 3.408,139.833 3.460,139.833 3.526 C 139.833 3.593,139.670 3.616,139.471 3.578 C 139.271 3.539,139.015 3.585,138.902 3.679 C 138.761 3.796,138.662 3.794,138.588 3.675 C 138.529 3.579,138.368 3.500,138.230 3.500 C 138.093 3.500,138.024 3.570,138.077 3.656 C 138.132 3.745,137.985 3.778,137.736 3.733 C 137.496 3.690,137.213 3.717,137.108 3.795 C 137.003 3.873,136.748 3.923,136.542 3.907 C 136.335 3.892,136.167 3.934,136.167 4.000 C 136.167 4.067,135.760 4.112,135.264 4.099 C 134.767 4.087,134.396 4.134,134.439 4.203 C 134.482 4.273,134.401 4.285,134.259 4.230 C 134.116 4.176,133.869 4.188,133.708 4.257 C 133.395 4.392,133.029 4.434,131.804 4.474 C 131.347 4.489,130.915 4.609,130.762 4.762 C 130.618 4.906,130.500 4.948,130.500 4.855 C 130.500 4.762,130.331 4.726,130.125 4.775 C 129.919 4.824,129.525 4.888,129.250 4.917 C 128.975 4.947,128.731 4.987,128.708 5.007 C 128.685 5.026,128.610 5.052,128.542 5.065 C 128.473 5.078,128.328 5.145,128.220 5.214 C 128.112 5.282,127.982 5.273,127.932 5.192 C 127.811 4.995,126.785 5.133,126.349 5.405 C 126.183 5.509,126.152 5.491,126.243 5.345 C 126.329 5.206,126.212 5.221,125.883 5.391 C 125.580 5.548,125.309 5.588,125.162 5.497 C 125.023 5.411,124.844 5.422,124.721 5.524 C 124.608 5.618,124.433 5.645,124.333 5.583 C 124.234 5.522,124.028 5.572,123.877 5.694 C 123.643 5.884,123.624 5.880,123.750 5.667 C 123.869 5.465,123.851 5.454,123.657 5.609 C 123.382 5.828,121.358 6.166,121.043 6.045 C 120.928 6.001,120.833 6.043,120.833 6.139 C 120.833 6.235,120.673 6.283,120.476 6.245 C 120.280 6.208,120.042 6.224,119.949 6.282 C 119.855 6.340,119.556 6.404,119.285 6.426 C 119.014 6.447,118.727 6.566,118.648 6.691 C 118.538 6.865,118.505 6.868,118.503 6.702 C 118.501 6.553,118.412 6.533,118.208 6.637 C 117.714 6.890,116.833 7.006,116.833 6.819 C 116.833 6.725,116.741 6.704,116.628 6.774 C 116.515 6.844,116.309 6.911,116.170 6.924 C 115.622 6.973,114.740 7.213,114.552 7.364 C 114.443 7.452,114.125 7.487,113.844 7.443 C 113.555 7.397,113.333 7.436,113.333 7.532 C 113.333 7.626,113.221 7.659,113.083 7.606 C 112.946 7.554,112.833 7.564,112.833 7.630 C 112.833 7.696,112.590 7.756,112.292 7.763 C 111.311 7.785,110.500 7.900,110.500 8.015 C 110.500 8.077,110.350 8.167,110.166 8.215 C 109.983 8.263,109.869 8.243,109.914 8.172 C 109.958 8.100,109.686 8.147,109.309 8.277 C 108.932 8.407,108.408 8.479,108.145 8.438 C 107.882 8.396,107.667 8.431,107.667 8.515 C 107.667 8.598,107.475 8.667,107.242 8.667 C 107.008 8.667,106.596 8.781,106.325 8.921 C 105.948 9.116,105.833 9.126,105.831 8.963 C 105.829 8.822,105.786 8.810,105.706 8.927 C 105.638 9.024,105.433 9.115,105.250 9.130 C 104.892 9.157,104.137 9.284,104.000 9.339 C 103.954 9.358,103.853 9.361,103.774 9.347 C 103.696 9.333,103.527 9.408,103.399 9.515 C 103.221 9.662,103.167 9.659,103.167 9.500 C 103.167 9.338,103.114 9.336,102.925 9.493 C 102.787 9.608,102.527 9.645,102.320 9.579 C 102.076 9.502,101.995 9.524,102.072 9.649 C 102.144 9.765,102.032 9.833,101.770 9.833 C 101.541 9.833,101.310 9.904,101.256 9.990 C 101.203 10.076,101.013 10.118,100.833 10.083 C 100.654 10.049,100.468 10.083,100.421 10.160 C 100.373 10.237,100.081 10.300,99.771 10.300 C 99.461 10.300,99.029 10.398,98.812 10.518 C 98.594 10.638,98.192 10.748,97.917 10.762 C 97.642 10.776,97.379 10.804,97.333 10.823 C 97.287 10.843,97.119 10.891,96.958 10.929 C 96.798 10.968,96.535 11.032,96.375 11.071 C 96.215 11.109,96.083 11.153,96.083 11.167 C 96.083 11.213,95.429 11.331,94.785 11.401 C 94.438 11.439,94.030 11.570,93.878 11.693 C 93.647 11.880,93.625 11.880,93.738 11.692 C 93.847 11.511,93.806 11.503,93.531 11.650 C 93.343 11.751,93.011 11.833,92.794 11.833 C 92.577 11.833,92.317 11.917,92.215 12.019 C 92.112 12.121,91.718 12.227,91.339 12.256 C 90.959 12.284,90.559 12.375,90.449 12.458 C 90.340 12.540,90.063 12.602,89.833 12.596 C 89.604 12.589,89.378 12.635,89.330 12.698 C 89.243 12.813,89.048 12.866,87.688 13.146 C 87.287 13.229,86.895 13.398,86.816 13.523 C 86.695 13.714,86.671 13.714,86.669 13.521 C 86.667 13.335,86.619 13.332,86.413 13.503 C 86.273 13.619,86.111 13.667,86.053 13.609 C 85.995 13.550,85.849 13.585,85.728 13.685 C 85.608 13.785,85.245 13.867,84.922 13.867 C 84.578 13.867,84.376 13.935,84.436 14.031 C 84.494 14.125,84.368 14.178,84.144 14.156 C 83.927 14.134,83.525 14.210,83.250 14.324 C 82.975 14.438,82.583 14.551,82.378 14.576 C 82.174 14.600,81.912 14.694,81.795 14.784 C 81.470 15.036,80.967 15.188,81.085 14.998 C 81.241 14.745,80.952 14.802,80.509 15.112 C 80.291 15.265,80.165 15.304,80.231 15.197 C 80.309 15.071,80.261 15.038,80.092 15.103 C 79.950 15.158,79.833 15.270,79.833 15.354 C 79.833 15.437,79.627 15.494,79.375 15.479 C 79.123 15.465,78.467 15.632,77.917 15.850 C 77.367 16.068,76.842 16.249,76.750 16.253 C 76.658 16.256,76.478 16.325,76.349 16.405 C 76.175 16.514,76.151 16.492,76.256 16.317 C 76.376 16.118,76.355 16.117,76.115 16.312 C 75.960 16.438,75.831 16.475,75.828 16.395 C 75.825 16.315,75.748 16.378,75.657 16.535 C 75.566 16.691,75.388 16.780,75.262 16.732 C 75.137 16.683,74.983 16.725,74.922 16.825 C 74.861 16.924,74.743 16.964,74.660 16.913 C 74.577 16.861,74.283 16.937,74.005 17.081 C 73.727 17.224,73.499 17.284,73.497 17.213 C 73.496 17.142,73.429 17.187,73.348 17.315 C 73.268 17.442,72.969 17.554,72.685 17.565 C 72.400 17.575,72.167 17.648,72.167 17.728 C 72.167 17.807,72.017 17.833,71.833 17.785 C 71.625 17.731,71.500 17.780,71.500 17.916 C 71.500 18.072,71.303 18.116,70.816 18.069 C 70.262 18.016,70.150 18.051,70.228 18.252 C 70.280 18.388,70.250 18.500,70.161 18.500 C 70.073 18.500,70.000 18.424,70.000 18.332 C 70.000 18.155,69.496 18.391,68.930 18.833 C 68.738 18.983,68.658 19.000,68.731 18.875 C 68.887 18.609,68.630 18.603,68.367 18.867 C 68.257 18.977,68.167 19.012,68.167 18.944 C 68.167 18.877,67.998 18.913,67.792 19.026 C 67.455 19.208,67.200 19.278,66.549 19.363 C 66.438 19.377,66.385 19.449,66.431 19.523 C 66.500 19.635,66.312 19.717,65.500 19.925 C 64.553 20.169,63.833 20.429,63.833 20.529 C 63.833 20.599,63.721 20.613,63.583 20.560 C 63.446 20.508,63.333 20.549,63.333 20.652 C 63.333 20.766,63.179 20.801,62.939 20.741 C 62.664 20.672,62.514 20.724,62.440 20.915 C 62.383 21.065,62.204 21.175,62.043 21.160 C 61.576 21.115,60.994 21.355,61.111 21.545 C 61.173 21.646,61.137 21.668,61.024 21.598 C 60.771 21.442,60.134 21.645,60.256 21.843 C 60.308 21.927,60.233 21.951,60.090 21.896 C 59.946 21.841,59.703 21.898,59.549 22.023 C 59.395 22.148,59.321 22.163,59.385 22.057 C 59.472 21.912,59.402 21.911,59.098 22.055 C 58.876 22.159,58.731 22.302,58.774 22.372 C 58.817 22.443,58.680 22.511,58.468 22.525 C 57.780 22.571,57.732 22.585,57.275 22.885 C 57.027 23.047,56.756 23.139,56.673 23.088 C 56.591 23.036,56.475 23.072,56.417 23.167 C 56.358 23.261,56.240 23.295,56.154 23.242 C 56.068 23.189,55.951 23.267,55.894 23.416 C 55.837 23.564,55.685 23.645,55.556 23.596 C 55.426 23.546,55.277 23.619,55.224 23.757 C 55.154 23.939,55.069 23.960,54.917 23.833 C 54.765 23.707,54.680 23.725,54.614 23.897 C 54.564 24.028,54.292 24.186,54.011 24.248 C 53.730 24.309,53.499 24.448,53.497 24.555 C 53.496 24.681,53.444 24.670,53.352 24.524 C 53.250 24.364,53.175 24.352,53.093 24.485 C 53.029 24.588,52.912 24.632,52.833 24.583 C 52.754 24.535,52.643 24.571,52.585 24.664 C 52.527 24.757,52.335 24.833,52.157 24.833 C 51.979 24.833,51.690 24.976,51.516 25.151 C 51.341 25.325,51.060 25.457,50.891 25.442 C 50.722 25.428,50.598 25.498,50.616 25.597 C 50.634 25.697,50.559 25.787,50.449 25.799 C 49.804 25.867,49.207 26.081,48.909 26.352 C 48.715 26.528,48.410 26.630,48.201 26.590 C 47.959 26.543,47.833 26.601,47.833 26.760 C 47.833 26.892,47.698 27.000,47.533 27.000 C 47.368 27.000,47.143 27.090,47.033 27.200 C 46.923 27.310,46.833 27.336,46.833 27.258 C 46.833 27.179,46.683 27.251,46.500 27.417 C 46.317 27.583,46.167 27.660,46.167 27.589 C 46.167 27.517,46.062 27.546,45.934 27.652 C 45.806 27.758,45.638 27.834,45.559 27.819 C 45.201 27.755,45.000 27.854,45.000 28.095 C 45.000 28.277,44.903 28.325,44.679 28.254 C 44.468 28.187,44.298 28.255,44.184 28.451 C 44.088 28.615,44.008 28.682,44.005 28.599 C 44.002 28.516,43.855 28.580,43.677 28.740 C 43.500 28.901,43.280 28.987,43.189 28.930 C 43.098 28.874,42.969 28.916,42.902 29.023 C 42.822 29.153,42.855 29.173,43.000 29.083 C 43.141 28.996,43.178 29.014,43.104 29.134 C 43.041 29.235,42.889 29.280,42.766 29.233 C 42.643 29.186,42.427 29.264,42.284 29.406 C 42.142 29.548,41.889 29.691,41.721 29.724 C 41.177 29.829,40.500 30.155,40.500 30.311 C 40.500 30.396,40.384 30.509,40.241 30.564 C 40.071 30.629,40.018 30.592,40.087 30.456 C 40.144 30.343,40.092 30.363,39.970 30.500 C 39.848 30.637,39.650 30.770,39.530 30.795 C 39.410 30.820,39.152 30.989,38.958 31.170 C 38.763 31.352,38.430 31.500,38.219 31.500 C 38.007 31.500,37.833 31.575,37.833 31.667 C 37.833 31.758,37.641 31.833,37.407 31.833 C 37.168 31.833,37.025 31.906,37.082 31.998 C 37.139 32.090,37.077 32.122,36.940 32.069 C 36.791 32.012,36.656 32.103,36.593 32.304 C 36.518 32.541,36.389 32.607,36.135 32.540 C 35.870 32.471,35.816 32.503,35.918 32.669 C 36.017 32.830,35.979 32.861,35.777 32.784 C 35.596 32.714,35.500 32.762,35.500 32.922 C 35.500 33.057,35.356 33.167,35.180 33.167 C 34.690 33.167,34.333 33.345,34.333 33.592 C 34.333 33.725,34.199 33.788,33.998 33.750 C 33.778 33.707,33.568 33.829,33.389 34.102 C 33.208 34.378,33.075 34.455,32.997 34.328 C 32.916 34.197,32.751 34.259,32.473 34.527 C 32.250 34.741,31.959 34.941,31.826 34.971 C 31.692 35.001,31.558 35.094,31.528 35.179 C 31.497 35.264,31.393 35.333,31.296 35.333 C 31.199 35.333,31.037 35.447,30.935 35.587 C 30.833 35.726,30.537 35.879,30.278 35.926 C 30.019 35.973,29.650 36.158,29.457 36.338 C 29.264 36.518,28.801 36.823,28.428 37.016 C 28.055 37.210,27.689 37.474,27.615 37.604 C 27.540 37.734,27.401 37.792,27.305 37.732 C 27.209 37.673,26.945 37.840,26.718 38.104 C 26.492 38.368,26.276 38.567,26.240 38.547 C 26.121 38.484,25.169 39.079,25.168 39.218 C 25.167 39.292,25.092 39.307,25.000 39.250 C 24.908 39.193,24.833 39.226,24.833 39.323 C 24.833 39.421,24.759 39.500,24.669 39.500 C 24.396 39.500,23.834 40.056,23.831 40.329 C 23.829 40.554,23.810 40.554,23.667 40.333 C 23.559 40.167,23.504 40.153,23.503 40.292 C 23.501 40.406,23.398 40.500,23.273 40.500 C 23.149 40.500,22.905 40.688,22.732 40.919 C 22.559 41.149,22.324 41.301,22.209 41.257 C 22.094 41.213,22.000 41.254,22.000 41.348 C 22.000 41.443,21.926 41.474,21.835 41.418 C 21.737 41.357,21.715 41.432,21.780 41.602 C 21.852 41.789,21.826 41.848,21.705 41.774 C 21.603 41.711,21.354 41.830,21.152 42.038 C 20.950 42.246,20.848 42.304,20.925 42.167 C 21.002 42.029,20.832 42.149,20.545 42.433 C 20.259 42.717,19.791 43.046,19.504 43.165 C 19.193 43.294,19.016 43.469,19.066 43.599 C 19.113 43.721,18.994 43.866,18.796 43.929 C 18.601 43.990,18.287 44.189,18.096 44.370 C 17.906 44.551,17.574 44.768,17.358 44.852 C 17.100 44.952,17.000 45.092,17.064 45.261 C 17.119 45.402,17.097 45.477,17.017 45.427 C 16.937 45.378,16.778 45.449,16.665 45.585 C 16.552 45.722,16.356 45.833,16.230 45.833 C 16.103 45.833,16.000 45.953,16.000 46.099 C 16.000 46.245,15.851 46.404,15.669 46.451 C 15.486 46.499,15.378 46.604,15.427 46.684 C 15.477 46.764,15.258 46.954,14.940 47.106 C 14.614 47.261,14.397 47.472,14.442 47.589 C 14.486 47.704,14.299 47.894,14.023 48.017 C 13.748 48.138,13.561 48.296,13.605 48.369 C 13.650 48.441,13.569 48.500,13.427 48.500 C 13.284 48.500,13.185 48.594,13.208 48.708 C 13.231 48.823,13.147 48.895,13.021 48.868 C 12.893 48.841,12.828 48.914,12.872 49.035 C 12.916 49.153,12.801 49.400,12.617 49.583 C 12.433 49.767,12.336 49.823,12.401 49.708 C 12.617 49.329,12.232 49.492,11.821 49.953 C 11.522 50.288,11.504 50.343,11.750 50.162 C 12.058 49.935,12.066 49.939,11.856 50.206 C 11.731 50.366,11.580 50.466,11.521 50.430 C 11.462 50.393,11.268 50.469,11.091 50.598 C 10.914 50.727,10.838 50.833,10.922 50.833 C 11.006 50.833,10.906 50.951,10.701 51.095 C 10.496 51.239,10.369 51.422,10.419 51.503 C 10.468 51.584,10.373 51.723,10.206 51.812 C 10.040 51.901,9.800 52.167,9.674 52.404 C 9.547 52.640,9.346 52.833,9.228 52.833 C 9.109 52.833,8.932 52.982,8.835 53.163 C 8.738 53.344,8.482 53.690,8.265 53.932 C 7.483 54.804,7.363 54.974,7.458 55.069 C 7.512 55.123,7.468 55.167,7.361 55.167 C 7.254 55.167,7.167 55.279,7.167 55.417 C 7.167 55.554,7.042 55.667,6.889 55.667 C 6.736 55.667,6.661 55.717,6.723 55.778 C 6.784 55.839,6.703 56.040,6.542 56.223 C 6.370 56.420,6.346 56.501,6.484 56.420 C 6.642 56.327,6.680 56.344,6.599 56.474 C 6.534 56.580,6.368 56.667,6.230 56.667 C 6.093 56.667,6.021 56.733,6.072 56.814 C 6.122 56.896,6.051 57.055,5.915 57.168 C 5.778 57.281,5.667 57.473,5.667 57.594 C 5.667 57.715,5.500 57.931,5.296 58.074 C 5.093 58.217,4.989 58.333,5.067 58.333 C 5.144 58.333,5.124 58.434,5.022 58.557 C 4.920 58.680,4.890 58.834,4.955 58.899 C 5.020 58.964,4.944 58.968,4.787 58.908 C 4.607 58.839,4.500 58.878,4.500 59.013 C 4.500 59.132,4.331 59.414,4.125 59.641 C 3.919 59.868,3.862 59.998,4.000 59.931 C 4.137 59.863,4.093 59.947,3.902 60.118 C 3.710 60.288,3.572 60.557,3.595 60.716 C 3.619 60.875,3.550 61.098,3.442 61.211 C 3.334 61.324,3.155 61.623,3.043 61.875 C 2.932 62.127,2.759 62.333,2.660 62.333 C 2.561 62.333,2.518 62.395,2.564 62.469 C 2.668 62.637,2.259 63.870,2.139 63.750 C 2.092 63.703,1.961 64.076,1.849 64.579 C 1.736 65.083,1.574 65.538,1.489 65.590 C 1.403 65.643,1.333 65.832,1.333 66.010 C 1.333 66.188,1.250 66.333,1.149 66.333 C 1.047 66.333,1.009 66.449,1.063 66.590 C 1.117 66.731,1.064 66.883,0.946 66.928 C 0.826 66.975,0.747 67.228,0.766 67.505 C 0.791 67.867,0.726 68.001,0.525 68.003 C 0.305 68.005,0.296 68.034,0.478 68.150 C 0.668 68.270,0.664 68.319,0.453 68.439 C 0.314 68.518,0.173 68.771,0.141 69.000 L 0.083 69.417 199.964 69.458 C 387.512 69.498,399.850 69.483,399.952 69.218 C 400.012 69.061,399.973 68.908,399.862 68.871 C 399.754 68.835,399.707 68.736,399.759 68.652 C 399.811 68.569,399.766 68.500,399.659 68.500 C 399.552 68.500,399.509 68.384,399.564 68.241 C 399.621 68.093,399.593 68.026,399.498 68.085 C 399.407 68.141,399.325 68.088,399.314 67.968 C 399.293 67.725,399.241 67.480,399.171 67.292 C 399.146 67.223,399.112 67.110,399.097 67.042 C 399.082 66.973,398.941 66.675,398.783 66.381 C 398.626 66.086,398.481 65.654,398.462 65.422 C 398.443 65.190,398.356 65.000,398.269 65.000 C 398.182 65.000,398.158 64.953,398.216 64.895 C 398.274 64.837,398.234 64.631,398.127 64.436 C 397.930 64.079,397.828 63.753,397.796 63.375 C 397.786 63.260,397.711 63.167,397.629 63.167 C 397.547 63.167,397.523 63.097,397.576 63.012 C 397.629 62.926,397.595 62.809,397.500 62.750 C 397.405 62.691,397.366 62.582,397.413 62.506 C 397.460 62.430,397.378 62.322,397.232 62.266 C 397.076 62.206,397.006 62.058,397.063 61.909 C 397.118 61.766,397.055 61.613,396.918 61.561 C 396.785 61.510,396.628 61.213,396.569 60.901 C 396.510 60.586,396.362 60.333,396.237 60.333 C 396.104 60.333,396.050 60.230,396.106 60.083 C 396.159 59.946,396.119 59.833,396.018 59.833 C 395.916 59.833,395.833 59.721,395.833 59.583 C 395.833 59.446,395.763 59.333,395.678 59.333 C 395.592 59.333,395.474 59.182,395.416 58.997 C 395.357 58.812,395.089 58.420,394.821 58.126 C 394.553 57.833,394.333 57.499,394.333 57.385 C 394.333 57.272,394.181 57.097,393.995 56.998 C 393.809 56.898,393.696 56.754,393.743 56.677 C 393.791 56.601,393.718 56.445,393.581 56.332 C 393.445 56.219,393.333 56.041,393.333 55.936 C 393.333 55.832,393.183 55.653,393.000 55.539 C 392.817 55.424,392.667 55.256,392.667 55.165 C 392.667 54.990,392.373 54.616,391.625 53.841 C 391.373 53.580,391.167 53.279,391.167 53.173 C 391.167 53.067,391.110 53.014,391.042 53.056 C 390.832 53.183,390.500 52.740,390.500 52.333 C 390.500 52.242,390.434 52.185,390.353 52.208 C 390.158 52.264,389.386 51.428,389.257 51.022 C 389.184 50.792,389.054 50.727,388.801 50.793 C 388.607 50.844,388.490 50.817,388.542 50.733 C 388.595 50.649,388.531 50.435,388.402 50.258 C 388.273 50.081,388.167 49.979,388.167 50.032 C 388.167 50.084,387.867 49.827,387.500 49.461 C 387.133 49.094,386.833 48.763,386.833 48.726 C 386.833 48.535,385.748 47.500,385.547 47.500 C 385.419 47.500,385.360 47.425,385.417 47.333 C 385.473 47.242,385.365 47.167,385.177 47.167 C 384.983 47.167,384.833 47.058,384.833 46.917 C 384.833 46.779,384.777 46.676,384.708 46.686 C 384.277 46.754,384.086 46.660,384.333 46.500 C 384.549 46.360,384.545 46.338,384.304 46.336 C 384.150 46.334,383.999 46.202,383.968 46.042 C 383.937 45.882,383.766 45.750,383.587 45.750 C 383.406 45.750,383.167 45.564,383.052 45.333 C 382.911 45.054,382.730 44.934,382.501 44.969 C 382.313 44.998,382.170 44.961,382.183 44.886 C 382.239 44.559,382.155 44.321,382.013 44.408 C 381.929 44.461,381.659 44.259,381.413 43.960 C 381.167 43.661,381.015 43.510,381.075 43.623 C 381.147 43.760,381.097 43.796,380.926 43.731 C 380.785 43.676,380.713 43.560,380.768 43.471 C 380.822 43.383,380.709 43.270,380.517 43.219 C 380.324 43.169,380.167 43.062,380.167 42.981 C 380.167 42.900,380.063 42.833,379.937 42.833 C 379.811 42.833,379.615 42.722,379.502 42.585 C 379.388 42.449,379.217 42.385,379.122 42.444 C 379.027 42.503,378.993 42.479,379.048 42.391 C 379.150 42.226,378.239 41.373,378.066 41.472 C 378.013 41.502,377.747 41.277,377.474 40.972 C 377.201 40.666,376.889 40.413,376.781 40.408 C 376.554 40.399,375.519 39.850,375.708 39.840 C 375.777 39.836,375.696 39.702,375.528 39.542 C 375.225 39.253,374.831 39.004,373.625 38.338 C 373.281 38.148,373.000 37.915,373.000 37.820 C 373.000 37.725,372.925 37.693,372.833 37.750 C 372.742 37.807,372.667 37.774,372.667 37.677 C 372.667 37.579,372.563 37.500,372.437 37.500 C 372.311 37.500,372.111 37.384,371.994 37.242 C 371.876 37.101,371.671 37.027,371.538 37.078 C 371.376 37.140,371.327 37.090,371.389 36.928 C 371.453 36.761,371.293 36.625,370.866 36.486 C 370.527 36.375,370.196 36.202,370.131 36.101 C 370.016 35.923,369.949 35.900,369.428 35.854 C 369.297 35.843,369.142 35.683,369.083 35.500 C 369.025 35.317,368.876 35.167,368.753 35.167 C 368.629 35.167,368.503 35.091,368.472 34.998 C 368.441 34.906,368.234 34.795,368.012 34.752 C 367.790 34.709,367.553 34.586,367.486 34.477 C 367.380 34.306,367.217 34.260,366.448 34.181 C 366.374 34.173,366.361 34.091,366.418 33.998 C 366.476 33.904,366.295 33.784,366.011 33.727 C 365.706 33.666,365.500 33.521,365.500 33.368 C 365.500 33.227,365.454 33.157,365.398 33.213 C 365.342 33.269,365.006 33.131,364.652 32.907 C 364.297 32.683,363.902 32.500,363.774 32.500 C 363.646 32.500,363.451 32.392,363.342 32.260 C 363.232 32.128,363.032 32.062,362.898 32.114 C 362.749 32.171,362.672 32.121,362.702 31.986 C 362.729 31.859,362.594 31.753,362.386 31.738 C 362.186 31.725,361.900 31.590,361.749 31.440 C 361.599 31.290,361.369 31.167,361.238 31.167 C 361.107 31.167,360.844 31.011,360.654 30.820 C 360.463 30.630,360.201 30.515,360.070 30.565 C 359.940 30.615,359.833 30.587,359.833 30.502 C 359.833 30.417,359.458 30.214,359.000 30.051 C 358.542 29.888,358.167 29.698,358.167 29.628 C 358.167 29.557,358.050 29.500,357.907 29.500 C 357.764 29.500,357.693 29.426,357.749 29.335 C 357.807 29.241,357.740 29.213,357.592 29.270 C 357.450 29.324,357.333 29.286,357.333 29.184 C 357.333 29.083,357.188 29.000,357.010 29.000 C 356.832 29.000,356.639 28.924,356.582 28.831 C 356.524 28.737,356.419 28.697,356.347 28.742 C 356.276 28.786,356.075 28.691,355.900 28.531 C 355.726 28.371,355.464 28.265,355.318 28.294 C 355.172 28.324,354.960 28.236,354.847 28.100 C 354.735 27.964,354.523 27.899,354.377 27.955 C 354.219 28.016,354.154 27.988,354.217 27.886 C 354.325 27.712,353.667 27.333,353.256 27.333 C 353.130 27.333,353.003 27.263,352.972 27.177 C 352.942 27.091,352.711 26.993,352.459 26.960 C 352.208 26.927,351.907 26.769,351.790 26.609 C 351.673 26.449,351.391 26.307,351.163 26.292 C 350.936 26.278,350.712 26.225,350.667 26.175 C 350.506 25.998,349.248 25.440,349.099 25.479 C 349.015 25.500,348.901 25.443,348.845 25.352 C 348.789 25.261,348.520 25.147,348.248 25.097 C 347.975 25.048,347.727 24.930,347.695 24.836 C 347.664 24.742,347.565 24.710,347.475 24.765 C 347.386 24.821,347.167 24.735,346.989 24.574 C 346.812 24.413,346.667 24.333,346.667 24.397 C 346.667 24.460,346.498 24.419,346.292 24.306 C 346.085 24.192,345.820 24.083,345.703 24.064 C 345.585 24.044,345.199 23.877,344.844 23.692 C 344.490 23.507,344.157 23.399,344.104 23.452 C 344.051 23.504,343.894 23.453,343.754 23.337 C 343.614 23.221,343.499 23.191,343.497 23.271 C 343.496 23.351,343.434 23.321,343.360 23.204 C 343.286 23.088,343.049 22.958,342.833 22.917 C 342.618 22.875,342.398 22.783,342.346 22.712 C 342.293 22.641,342.156 22.576,342.042 22.567 C 341.242 22.503,341.240 22.502,341.500 22.333 C 341.723 22.189,341.296 22.105,340.727 22.181 C 340.668 22.189,340.557 22.095,340.480 21.973 C 340.372 21.803,340.338 21.800,340.336 21.960 C 340.334 22.095,340.086 22.015,339.651 21.740 C 339.276 21.503,338.926 21.352,338.873 21.405 C 338.821 21.457,338.878 21.500,339.000 21.500 C 339.122 21.500,339.183 21.539,339.136 21.586 C 339.088 21.634,338.846 21.567,338.596 21.437 C 338.289 21.278,338.214 21.171,338.363 21.105 C 338.489 21.050,338.441 21.018,338.250 21.030 C 337.907 21.052,337.465 20.924,336.965 20.657 C 336.808 20.574,336.564 20.550,336.423 20.604 C 336.282 20.658,336.167 20.627,336.167 20.536 C 336.167 20.444,335.982 20.323,335.757 20.267 C 335.532 20.210,335.138 20.078,334.882 19.973 C 334.626 19.868,334.270 19.754,334.091 19.720 C 333.911 19.686,333.714 19.576,333.652 19.475 C 333.589 19.375,333.437 19.327,333.312 19.368 C 333.188 19.410,332.982 19.339,332.855 19.212 C 332.728 19.085,332.511 19.024,332.374 19.077 C 332.237 19.129,332.021 19.087,331.896 18.982 C 331.770 18.878,331.667 18.848,331.667 18.917 C 331.667 18.985,331.573 18.963,331.458 18.868 C 331.344 18.773,331.175 18.685,331.083 18.674 C 330.574 18.608,330.167 18.444,330.167 18.305 C 330.167 18.218,330.088 18.195,329.993 18.255 C 329.897 18.314,329.713 18.274,329.583 18.167 C 329.454 18.059,329.258 18.027,329.149 18.094 C 329.034 18.165,328.854 18.086,328.725 17.910 C 328.601 17.741,328.500 17.694,328.500 17.805 C 328.500 17.945,328.371 17.923,328.083 17.735 C 327.854 17.585,327.667 17.504,327.667 17.556 C 327.667 17.607,327.396 17.537,327.065 17.398 C 326.735 17.260,326.425 17.187,326.376 17.235 C 326.328 17.283,326.101 17.174,325.871 16.994 C 325.552 16.743,325.399 16.709,325.226 16.853 C 325.060 16.991,325.000 16.992,325.000 16.854 C 325.000 16.751,324.850 16.667,324.667 16.667 C 324.483 16.667,324.333 16.592,324.333 16.500 C 324.333 16.408,324.277 16.342,324.208 16.353 C 324.140 16.364,324.046 16.358,324.000 16.340 C 323.899 16.301,323.371 16.179,322.917 16.091 C 321.601 15.835,321.167 15.676,321.164 15.447 C 321.163 15.331,321.095 15.352,321.000 15.500 C 320.911 15.637,320.837 15.675,320.836 15.583 C 320.834 15.492,320.636 15.405,320.395 15.391 C 320.154 15.377,319.910 15.294,319.853 15.205 C 319.796 15.117,319.500 15.061,319.194 15.080 C 318.889 15.099,318.544 15.020,318.429 14.905 C 318.314 14.790,317.936 14.651,317.590 14.596 C 317.244 14.541,316.876 14.442,316.772 14.377 C 316.668 14.312,316.456 14.279,316.300 14.305 C 316.144 14.331,315.844 14.239,315.633 14.101 C 315.422 13.963,315.100 13.873,314.917 13.901 C 314.733 13.929,314.333 13.818,314.026 13.655 C 313.719 13.492,313.326 13.386,313.151 13.420 C 312.976 13.453,312.833 13.420,312.833 13.345 C 312.833 13.270,312.665 13.202,312.458 13.194 C 311.846 13.170,311.574 13.087,311.108 12.782 C 310.807 12.584,310.667 12.557,310.667 12.696 C 310.667 12.847,310.618 12.851,310.480 12.713 C 310.377 12.610,310.189 12.566,310.063 12.614 C 309.937 12.663,309.833 12.632,309.833 12.546 C 309.833 12.459,309.740 12.381,309.625 12.372 C 309.112 12.329,308.556 12.221,308.410 12.136 C 308.322 12.085,308.119 12.064,307.958 12.090 C 307.798 12.116,307.667 12.076,307.667 12.001 C 307.667 11.865,306.181 11.600,305.976 11.698 C 305.917 11.727,305.724 11.620,305.549 11.461 C 305.344 11.276,305.171 11.229,305.069 11.331 C 304.967 11.433,304.749 11.408,304.466 11.262 C 304.223 11.135,303.981 11.075,303.928 11.127 C 303.876 11.179,303.833 11.126,303.833 11.007 C 303.833 10.835,303.784 10.834,303.583 11.000 C 303.439 11.120,303.333 11.136,303.333 11.038 C 303.333 10.945,303.217 10.824,303.075 10.770 C 302.913 10.708,302.858 10.739,302.928 10.852 C 303.007 10.980,302.939 10.979,302.696 10.849 C 302.506 10.747,302.160 10.649,301.926 10.629 C 301.691 10.610,301.500 10.540,301.500 10.474 C 301.500 10.408,301.369 10.356,301.208 10.359 C 301.048 10.362,300.767 10.330,300.583 10.287 C 300.400 10.244,299.892 10.158,299.455 10.094 C 299.018 10.031,298.704 9.908,298.757 9.823 C 298.878 9.626,298.793 9.627,298.262 9.829 C 297.947 9.949,297.847 9.938,297.877 9.787 C 297.899 9.673,297.783 9.606,297.613 9.635 C 297.445 9.664,297.189 9.589,297.044 9.468 C 296.827 9.290,296.766 9.289,296.706 9.467 C 296.649 9.636,296.543 9.624,296.216 9.410 C 295.987 9.260,295.661 9.173,295.491 9.217 C 295.321 9.262,295.160 9.239,295.133 9.167 C 295.080 9.026,293.816 8.802,292.792 8.753 C 292.448 8.736,292.110 8.660,292.042 8.584 C 291.973 8.509,292.022 8.508,292.151 8.582 C 292.308 8.674,292.346 8.655,292.266 8.525 C 292.196 8.413,291.937 8.369,291.644 8.421 C 291.367 8.469,291.179 8.448,291.226 8.372 C 291.273 8.297,290.960 8.221,290.530 8.204 C 289.370 8.158,288.927 8.097,288.829 7.967 C 288.781 7.903,288.518 7.812,288.246 7.763 C 287.973 7.715,287.353 7.600,286.867 7.507 C 286.381 7.415,285.931 7.346,285.867 7.356 C 285.803 7.365,285.712 7.358,285.667 7.339 C 285.477 7.263,284.724 7.159,284.375 7.161 C 284.169 7.162,284.000 7.102,284.000 7.027 C 284.000 6.953,283.756 6.893,283.458 6.894 C 283.160 6.895,282.729 6.848,282.500 6.790 C 281.315 6.485,278.860 6.051,278.458 6.075 C 278.206 6.090,278.000 6.046,278.000 5.977 C 278.000 5.909,277.852 5.881,277.671 5.916 C 277.490 5.951,277.096 5.907,276.796 5.818 C 276.496 5.729,275.802 5.627,275.254 5.590 C 274.706 5.553,274.234 5.451,274.204 5.363 C 274.175 5.274,274.012 5.238,273.842 5.283 C 273.673 5.327,273.376 5.279,273.184 5.176 C 272.921 5.035,272.833 5.037,272.833 5.181 C 272.833 5.312,272.766 5.321,272.625 5.211 C 272.510 5.121,272.173 5.067,271.875 5.090 C 271.577 5.114,271.333 5.057,271.333 4.964 C 271.333 4.872,271.108 4.829,270.833 4.869 C 270.558 4.909,270.333 4.877,270.333 4.797 C 270.333 4.717,270.033 4.686,269.667 4.728 C 269.300 4.770,269.000 4.735,269.000 4.650 C 269.000 4.564,268.794 4.499,268.542 4.503 C 267.701 4.519,266.546 4.370,266.230 4.205 C 266.058 4.115,265.617 4.064,265.250 4.090 C 264.883 4.117,264.488 4.059,264.371 3.962 C 264.254 3.865,264.113 3.831,264.057 3.887 C 264.002 3.943,263.806 3.908,263.624 3.810 C 263.373 3.676,263.255 3.688,263.145 3.858 C 263.024 4.046,262.976 4.045,262.850 3.851 C 262.768 3.723,262.589 3.661,262.454 3.713 C 262.318 3.765,262.123 3.723,262.020 3.620 C 261.882 3.482,261.833 3.488,261.833 3.643 C 261.833 3.772,261.753 3.801,261.625 3.718 C 261.510 3.644,261.192 3.572,260.917 3.557 C 260.642 3.543,260.398 3.515,260.375 3.495 C 260.352 3.475,260.052 3.435,259.708 3.407 C 258.031 3.270,257.024 3.167,256.417 3.070 C 256.050 3.011,255.319 2.953,254.792 2.940 C 254.265 2.927,253.834 2.873,253.834 2.819 C 253.834 2.765,253.590 2.710,253.292 2.696 C 252.994 2.683,252.563 2.632,252.333 2.582 C 251.839 2.476,249.907 2.313,248.792 2.282 C 248.356 2.271,247.999 2.184,247.997 2.089 C 247.996 1.994,247.922 2.029,247.833 2.167 C 247.737 2.316,247.671 2.337,247.669 2.219 C 247.668 2.110,247.535 2.021,247.375 2.021 C 247.017 2.021,244.878 1.878,243.083 1.733 C 242.350 1.674,241.157 1.601,240.431 1.571 C 239.585 1.535,239.064 1.438,238.976 1.300 C 238.865 1.126,238.838 1.128,238.836 1.311 C 238.834 1.470,238.720 1.504,238.458 1.423 C 238.252 1.360,237.758 1.317,237.360 1.329 C 236.962 1.341,236.676 1.286,236.724 1.208 C 236.772 1.130,236.629 1.067,236.406 1.067 C 236.183 1.067,236.000 1.121,236.000 1.188 C 236.000 1.255,235.760 1.241,235.467 1.157 C 235.174 1.073,234.645 1.041,234.291 1.085 C 233.806 1.146,233.678 1.115,233.772 0.958 C 233.872 0.792,233.846 0.792,233.642 0.957 C 233.501 1.071,233.333 1.110,233.268 1.045 C 233.202 0.980,232.947 0.916,232.700 0.903 C 232.452 0.890,231.908 0.856,231.490 0.827 C 231.072 0.798,230.646 0.826,230.543 0.890 C 230.440 0.953,230.309 0.929,230.252 0.836 C 230.194 0.743,230.072 0.667,229.980 0.667 C 229.889 0.667,229.867 0.753,229.933 0.859 C 230.013 0.988,229.978 1.006,229.826 0.912 C 229.702 0.835,229.259 0.754,228.842 0.731 C 228.425 0.708,228.083 0.679,228.083 0.666 C 228.083 0.653,227.910 0.610,227.698 0.570 C 227.447 0.524,227.352 0.563,227.427 0.683 C 227.507 0.812,227.448 0.819,227.228 0.705 C 227.057 0.616,226.279 0.532,225.500 0.518 C 223.152 0.476,219.592 0.302,219.458 0.222 C 219.390 0.181,219.333 0.231,219.333 0.333 C 219.333 0.436,219.268 0.479,219.188 0.430 C 218.782 0.179,187.223 -0.167,186.979 0.077 " stroke="none" fill="#cce4fc" fill-rule="evenodd"></path><path id="path1" d="M283.083 6.833 C 283.140 6.925,283.299 7.000,283.436 7.000 C 283.574 7.000,283.640 6.925,283.583 6.833 C 283.527 6.742,283.368 6.667,283.230 6.667 C 283.093 6.667,283.027 6.742,283.083 6.833 M95.833 10.953 C 95.256 11.057,95.082 11.265,95.591 11.242 C 95.821 11.232,96.097 11.136,96.205 11.029 C 96.312 10.921,96.366 10.844,96.325 10.856 C 96.284 10.869,96.063 10.912,95.833 10.953 M358.035 29.566 C 358.153 29.694,358.301 29.767,358.363 29.730 C 358.426 29.692,358.524 29.737,358.582 29.831 C 358.639 29.924,358.776 30.000,358.885 29.999 C 358.994 29.998,358.858 29.849,358.583 29.667 C 358.002 29.282,357.726 29.231,358.035 29.566 M360.929 30.980 C 360.878 31.062,361.024 31.164,361.252 31.208 C 361.750 31.303,361.779 31.239,361.343 31.005 C 361.160 30.907,360.981 30.897,360.929 30.980 M378.833 41.958 C 378.833 42.033,379.077 42.237,379.375 42.412 C 379.854 42.692,379.889 42.695,379.680 42.439 C 379.394 42.087,378.833 41.769,378.833 41.958 M13.917 47.833 C 13.751 48.017,13.699 48.167,13.802 48.167 C 13.904 48.167,14.069 48.017,14.167 47.833 C 14.265 47.650,14.317 47.500,14.282 47.500 C 14.247 47.500,14.083 47.650,13.917 47.833 " stroke="none" fill="#ccecfc" fill-rule="evenodd"></path><path id="path2" d="M218.127 0.285 C 218.334 0.324,218.634 0.323,218.794 0.281 C 218.953 0.239,218.783 0.207,218.417 0.209 C 218.050 0.211,217.920 0.245,218.127 0.285 M233.226 0.948 C 233.396 1.118,234.000 1.186,234.000 1.035 C 234.000 0.964,233.800 0.889,233.555 0.869 C 233.310 0.849,233.162 0.885,233.226 0.948 M163.667 1.131 C 163.667 1.203,163.817 1.262,164.000 1.262 C 164.183 1.262,164.333 1.203,164.333 1.131 C 164.333 1.059,164.183 1.000,164.000 1.000 C 163.817 1.000,163.667 1.059,163.667 1.131 M252.500 2.564 C 252.500 2.701,253.519 2.770,253.601 2.639 C 253.648 2.562,253.419 2.500,253.093 2.500 C 252.767 2.500,252.500 2.529,252.500 2.564 M65.255 19.825 C 65.201 19.912,65.318 19.952,65.518 19.913 C 66.016 19.817,66.130 19.667,65.704 19.667 C 65.511 19.667,65.309 19.738,65.255 19.825 M38.500 31.264 C 38.267 31.393,38.194 31.494,38.333 31.492 C 38.471 31.491,38.729 31.379,38.907 31.245 C 39.308 30.941,39.060 30.953,38.500 31.264 M383.032 45.345 C 383.099 45.547,383.833 46.117,383.833 45.967 C 383.833 45.927,383.637 45.723,383.398 45.515 C 383.158 45.306,382.993 45.230,383.032 45.345 M387.510 49.429 C 387.826 49.803,388.117 50.082,388.158 50.049 C 388.200 50.016,387.942 49.710,387.585 49.369 L 386.938 48.750 387.510 49.429 M12.558 49.206 C 12.435 49.402,12.323 49.833,12.394 49.833 C 12.550 49.833,12.952 49.157,12.838 49.086 C 12.757 49.036,12.630 49.090,12.558 49.206 M6.500 56.083 C 6.386 56.221,6.358 56.334,6.438 56.336 C 6.518 56.337,6.471 56.418,6.333 56.515 C 6.111 56.672,6.111 56.684,6.333 56.624 C 6.471 56.586,6.584 56.487,6.586 56.403 C 6.587 56.319,6.648 56.156,6.721 56.042 C 6.905 55.752,6.751 55.781,6.500 56.083 M399.364 68.084 C 399.469 68.314,399.576 68.479,399.604 68.452 C 399.705 68.350,399.456 67.667,399.317 67.667 C 399.238 67.667,399.259 67.854,399.364 68.084 " stroke="none" fill="#cce4f4" fill-rule="evenodd"></path><path id="path3" d="" stroke="none" fill="#d0e4fc" fill-rule="evenodd"></path><path id="path4" d="" stroke="none" fill="#d0e4fc" fill-rule="evenodd"></path></g></svg>